/* XPM */
static char * av_go_to_vessel_xpm[] = {
"19 18 57 1",
" 	c None",
".	c #FFFFFF",
"+	c #4A4A4A",
"@	c #000000",
"#	c #4D4D4D",
"$	c #444444",
"%	c #535353",
"&	c #DADADA",
"*	c #060606",
"=	c #B8B8B8",
"-	c #9A9A9A",
";	c #121212",
">	c #E8E8E8",
",	c #787878",
"'	c #282828",
")	c #FAFAFA",
"!	c #E3E3E3",
"~	c #0E0E0E",
"{	c #A3A3A3",
"]	c #F3F3F3",
"^	c #1A1A1A",
"/	c #8C8C8C",
"(	c #494949",
"_	c #4B4B4B",
":	c #A5A5A5",
"<	c #040404",
"[	c #0F0F0F",
"}	c #E4E4E4",
"|	c #3D3D3D",
"1	c #9B9B9B",
"2	c #C9C9C9",
"3	c #A2A2A2",
"4	c #383838",
"5	c #FEFEFE",
"6	c #E7E7E7",
"7	c #838383",
"8	c #111111",
"9	c #A1A1A1",
"0	c #505050",
"a	c #3F3F3F",
"b	c #949494",
"c	c #191919",
"d	c #F2F2F2",
"e	c #A6A6A6",
"f	c #090909",
"g	c #DBDBDB",
"h	c #FCFCFC",
"i	c #2E2E2E",
"j	c #767676",
"k	c #E9E9E9",
"l	c #141414",
"m	c #8D8D8D",
"n	c #C0C0C0",
"o	c #545454",
"p	c #373737",
"q	c #FDFDFD",
"r	c #585858",
"...................",
"...................",
"...................",
".....+@#....$@%....",
".....&*@=..-@;>....",
"......,@')!~@{.....",
"......]^@/(@_......",
".......:@<@[}......",
"........|@@1.......",
"........_@@2.......",
".......3@@@45......",
"......6;@78@9......",
"......0@a5b@cd.....",
".....e@fg.hi@j.....",
"....kl@m...n@*&....",
"....o@pq....r@+....",
"...................",
"..................."};
