/* XPM */
static char * av_center_vessel_xpm[] = {
"19 18 63 1",
" 	c None",
".	c #EAE8E3",
"+	c #CCCAC6",
"@	c #E7E5E0",
"#	c #E9E7E2",
"$	c #C5C4BF",
"%	c #000000",
"&	c #C7C5C1",
"*	c #E0DED9",
"=	c #E8E6E1",
"-	c #C9C7C3",
";	c #1F1F1F",
">	c #7F7F7F",
",	c #B8B7B3",
"'	c #DEDCD7",
")	c #CBC9C5",
"!	c #757575",
"~	c #373737",
"{	c #B9B8B4",
"]	c #E1DFDA",
"^	c #DBD9D5",
"/	c #C3C1BD",
"(	c #9F9D9A",
"_	c #AAA8A5",
":	c #C3C2BE",
"<	c #E3E1DC",
"[	c #D6D4CF",
"}	c #B3B1AE",
"|	c #C2C0BC",
"1	c #CAC8C4",
"2	c #E4E3DE",
"3	c #BFBDB9",
"4	c #D1CFCB",
"5	c #D4D2CE",
"6	c #767676",
"7	c #E4E2DD",
"8	c #4A4A4A",
"9	c #B5B3AF",
"0	c #DFDDD8",
"a	c #8F8F8F",
"b	c #4D4D4D",
"c	c #595959",
"d	c #282828",
"e	c #C8C6C2",
"f	c #B4B2AE",
"g	c #444444",
"h	c #8F8E8B",
"i	c #BCBBB6",
"j	c #DAD9D4",
"k	c #969491",
"l	c #ADACA8",
"m	c #DDDBD7",
"n	c #D3D1CD",
"o	c #626262",
"p	c #353535",
"q	c #393939",
"r	c #C0BEBA",
"s	c #575757",
"t	c #94928F",
"u	c #898885",
"v	c #AFAEAA",
"w	c #BBBAB6",
"x	c #D9D8D3",
".........+@#.......",
"........$%&*=......",
".......-;>%,'=.....",
"......)%!~%%{]=....",
"......@^/%(_:^@....",
"....)@@<[%}|[<)@=..",
"...1%^<=2%342=%:*@.",
"..5%6/[27%34728%9'@",
".0%ab%%%%%%%%%cd%,*",
".=e%%(}33%_f33g%hij",
".#]{%_|44%f/44%kl-*",
"..='{:[27%3472:/)m@",
"...=]^<=2%342=<^]@.",
"....=@n%opq%i<@@=..",
"......=r;s%t/^@....",
"......#]_%ul1*=....",
".......@mvw-m@.....",
"........@0x0@......"};
