/* XPM */
static char * route_xpm[] = {
"20 18 2 1",
" 	c #FFFFFF",
".	c #000000",
"             .      ",
"             .      ",
"            ..      ",
"           ..       ",
"          ..        ",
"      .....         ",
"      .             ",
"      .             ",
"      ..            ",
"       .....        ",
"           ....     ",
"              ..    ",
"               .    ",
"             ...    ",
"        ......      ",
"     ....           ",
"   ...              ",
"  ..                "};
